<svg width="112" height="96" viewBox="0 0 112 96" fill="none" xmlns="http://www.w3.org/2000/svg">
<mask id="mask0_56_2" style="mask-type:alpha" maskUnits="userSpaceOnUse" x="4" y="4" width="104" height="88">
<path d="M108 4H4V92H108V4Z" fill="url(#paint0_radial_56_2)"/>
</mask>
<g mask="url(#mask0_56_2)">
<g opacity="0.1" filter="url(#filter0_f_56_2)">
<path d="M56 74C60.4183 74 64 70.4183 64 66C64 61.5817 60.4183 58 56 58C51.5817 58 48 61.5817 48 66C48 70.4183 51.5817 74 56 74Z" stroke="#111827" strokeWidth="2"/>
</g>
<g opacity="0.1" filter="url(#filter1_f_56_2)">
<path d="M56 82C64.8366 82 72 74.8366 72 66C72 57.1634 64.8366 50 56 50C47.1634 50 40 57.1634 40 66C40 74.8366 47.1634 82 56 82Z" stroke="#111827" strokeWidth="2"/>
</g>
<g opacity="0.1" filter="url(#filter2_f_56_2)">
<path d="M56 90C69.2548 90 80 79.2548 80 66C80 52.7452 69.2548 42 56 42C42.7452 42 32 52.7452 32 66C32 79.2548 42.7452 90 56 90Z" stroke="#111827" strokeWidth="2"/>
</g>
<g opacity="0.1" filter="url(#filter3_f_56_2)">
<path d="M56 98C73.6731 98 88 83.6731 88 66C88 48.3269 73.6731 34 56 34C38.3269 34 24 48.3269 24 66C24 83.6731 38.3269 98 56 98Z" stroke="#111827" strokeWidth="2"/>
</g>
<g opacity="0.1" filter="url(#filter4_f_56_2)">
<path d="M56 106C78.0914 106 96 88.0914 96 66C96 43.9086 78.0914 26 56 26C33.9086 26 16 43.9086 16 66C16 88.0914 33.9086 106 56 106Z" stroke="#111827" strokeWidth="2"/>
</g>
<g opacity="0.1" filter="url(#filter5_f_56_2)">
<path d="M56 114C82.5097 114 104 92.5097 104 66C104 39.4903 82.5097 18 56 18C29.4903 18 8 39.4903 8 66C8 92.5097 29.4903 114 56 114Z" stroke="#111827" strokeWidth="2"/>
</g>
<g opacity="0.1" filter="url(#filter6_f_56_2)">
<path d="M56 122C86.9279 122 112 96.9279 112 66C112 35.0721 86.9279 10 56 10C25.0721 10 0 35.0721 0 66C0 96.9279 25.0721 122 56 122Z" stroke="#111827" strokeWidth="2"/>
</g>
<g opacity="0.2" filter="url(#filter7_f_56_2)">
<path d="M42 72H70L75.1056 61.7889C76.4354 59.1292 74.5014 56 71.5279 56H40.4721C37.4986 56 35.5646 59.1292 36.8944 61.7889L42 72Z" fill="#377DFF"/>
</g>
<g filter="url(#filter8_dd_56_2)">
<path d="M12 -19H100C104.418 -19 108 -15.4183 108 -11V58C108 62.4183 104.418 66 100 66H12C7.58172 66 4 62.4183 4 58V-11C4 -15.4183 7.58172 -19 12 -19Z" fill="white"/>
<path d="M12 -19.5H100C104.694 -19.5 108.5 -15.6944 108.5 -11V58C108.5 62.6944 104.694 66.5 100 66.5H12C7.30557 66.5 3.5 62.6944 3.5 58V-11C3.5 -15.6944 7.30557 -19.5 12 -19.5Z" stroke="#121826" stroke-opacity="0.08"/>
</g>
<g filter="url(#filter9_dd_56_2)">
<path d="M36 24C36 21.7909 37.7909 20 40 20H72C74.2091 20 76 21.7909 76 24V42.2307C76 44.3476 74.3505 46.098 72.2373 46.2236L60.1348 46.9429C59.5276 46.979 58.9697 47.2895 58.6191 47.7866L57.6344 49.1828C56.8376 50.3124 55.1624 50.3124 54.3656 49.1828L53.3809 47.7866C53.0303 47.2895 52.4724 46.979 51.8652 46.9429L39.7627 46.2236C37.6495 46.098 36 44.3476 36 42.2307V24Z" fill="white"/>
<path d="M40 19.5C37.5147 19.5 35.5 21.5147 35.5 24V42.2307C35.5 44.6123 37.3556 46.5814 39.733 46.7227L51.8355 47.442C52.291 47.4691 52.7093 47.702 52.9723 48.0748L53.957 49.471C54.953 50.883 57.047 50.883 58.043 49.471L59.0277 48.0748C59.2907 47.702 59.709 47.4691 60.1645 47.442L72.267 46.7227C74.6444 46.5814 76.5 44.6123 76.5 42.2307V24C76.5 21.5147 74.4853 19.5 72 19.5H40Z" stroke="#121826" stroke-opacity="0.08"/>
</g>
<path d="M59 26H43C42.4477 26 42 26.4477 42 27V28C42 28.5523 42.4477 29 43 29H59C59.5523 29 60 28.5523 60 28V27C60 26.4477 59.5523 26 59 26Z" fill="#377DFF"/>
<path d="M42 34C42 33.4477 42.4477 33 43 33H67C67.5523 33 68 33.4477 68 34C68 34.5523 67.5523 35 67 35H43C42.4477 35 42 34.5523 42 34Z" fill="#E5E7EB"/>
<path d="M42 39C42 38.4477 42.4477 38 43 38H67C67.5523 38 68 38.4477 68 39C68 39.5523 67.5523 40 67 40H43C42.4477 40 42 39.5523 42 39Z" fill="#E5E7EB"/>
<g filter="url(#filter10_dd_56_2)">
<path d="M56 74C60.4183 74 64 70.4183 64 66C64 61.5817 60.4183 58 56 58C51.5817 58 48 61.5817 48 66C48 70.4183 51.5817 74 56 74Z" fill="#377DFF"/>
<path d="M56 74.5C60.6944 74.5 64.5 70.6944 64.5 66C64.5 61.3056 60.6944 57.5 56 57.5C51.3056 57.5 47.5 61.3056 47.5 66C47.5 70.6944 51.3056 74.5 56 74.5Z" stroke="#377DFF"/>
</g>
<g filter="url(#filter11_dd_56_2)">
<path d="M56 68C57.1046 68 58 67.1046 58 66C58 64.8954 57.1046 64 56 64C54.8954 64 54 64.8954 54 66C54 67.1046 54.8954 68 56 68Z" fill="white"/>
</g>
</g>
<defs>
<filter id="filter0_f_56_2" x="46.5" y="56.5" width="19" height="19" filterUnits="userSpaceOnUse" color-interpolation-filters="sRGB">
<feFlood flood-opacity="0" result="BackgroundImageFix"/>
<feBlend mode="normal" in="SourceGraphic" in2="BackgroundImageFix" result="shape"/>
<feGaussianBlur stdDeviation="0.25" result="effect1_foregroundBlur_56_2"/>
</filter>
<filter id="filter1_f_56_2" x="38.5" y="48.5" width="35" height="35" filterUnits="userSpaceOnUse" color-interpolation-filters="sRGB">
<feFlood flood-opacity="0" result="BackgroundImageFix"/>
<feBlend mode="normal" in="SourceGraphic" in2="BackgroundImageFix" result="shape"/>
<feGaussianBlur stdDeviation="0.25" result="effect1_foregroundBlur_56_2"/>
</filter>
<filter id="filter2_f_56_2" x="30.5" y="40.5" width="51" height="51" filterUnits="userSpaceOnUse" color-interpolation-filters="sRGB">
<feFlood flood-opacity="0" result="BackgroundImageFix"/>
<feBlend mode="normal" in="SourceGraphic" in2="BackgroundImageFix" result="shape"/>
<feGaussianBlur stdDeviation="0.25" result="effect1_foregroundBlur_56_2"/>
</filter>
<filter id="filter3_f_56_2" x="22.5" y="32.5" width="67" height="67" filterUnits="userSpaceOnUse" color-interpolation-filters="sRGB">
<feFlood flood-opacity="0" result="BackgroundImageFix"/>
<feBlend mode="normal" in="SourceGraphic" in2="BackgroundImageFix" result="shape"/>
<feGaussianBlur stdDeviation="0.25" result="effect1_foregroundBlur_56_2"/>
</filter>
<filter id="filter4_f_56_2" x="14.5" y="24.5" width="83" height="83" filterUnits="userSpaceOnUse" color-interpolation-filters="sRGB">
<feFlood flood-opacity="0" result="BackgroundImageFix"/>
<feBlend mode="normal" in="SourceGraphic" in2="BackgroundImageFix" result="shape"/>
<feGaussianBlur stdDeviation="0.25" result="effect1_foregroundBlur_56_2"/>
</filter>
<filter id="filter5_f_56_2" x="6.5" y="16.5" width="99" height="99" filterUnits="userSpaceOnUse" color-interpolation-filters="sRGB">
<feFlood flood-opacity="0" result="BackgroundImageFix"/>
<feBlend mode="normal" in="SourceGraphic" in2="BackgroundImageFix" result="shape"/>
<feGaussianBlur stdDeviation="0.25" result="effect1_foregroundBlur_56_2"/>
</filter>
<filter id="filter6_f_56_2" x="-1.5" y="8.5" width="115" height="115" filterUnits="userSpaceOnUse" color-interpolation-filters="sRGB">
<feFlood flood-opacity="0" result="BackgroundImageFix"/>
<feBlend mode="normal" in="SourceGraphic" in2="BackgroundImageFix" result="shape"/>
<feGaussianBlur stdDeviation="0.25" result="effect1_foregroundBlur_56_2"/>
</filter>
<filter id="filter7_f_56_2" x="24.4669" y="44" width="63.0661" height="40" filterUnits="userSpaceOnUse" color-interpolation-filters="sRGB">
<feFlood flood-opacity="0" result="BackgroundImageFix"/>
<feBlend mode="normal" in="SourceGraphic" in2="BackgroundImageFix" result="shape"/>
<feGaussianBlur stdDeviation="6" result="effect1_foregroundBlur_56_2"/>
</filter>
<filter id="filter8_dd_56_2" x="-2" y="-22" width="116" height="97" filterUnits="userSpaceOnUse" color-interpolation-filters="sRGB">
<feFlood flood-opacity="0" result="BackgroundImageFix"/>
<feColorMatrix in="SourceAlpha" type="matrix" values="0 0 0 0 0 0 0 0 0 0 0 0 0 0 0 0 0 0 127 0" result="hardAlpha"/>
<feOffset dy="3"/>
<feGaussianBlur stdDeviation="2.5"/>
<feColorMatrix type="matrix" values="0 0 0 0 0.0705882 0 0 0 0 0.0941176 0 0 0 0 0.14902 0 0 0 0.04 0"/>
<feBlend mode="normal" in2="BackgroundImageFix" result="effect1_dropShadow_56_2"/>
<feColorMatrix in="SourceAlpha" type="matrix" values="0 0 0 0 0 0 0 0 0 0 0 0 0 0 0 0 0 0 127 0" result="hardAlpha"/>
<feOffset dy="1"/>
<feGaussianBlur stdDeviation="1"/>
<feColorMatrix type="matrix" values="0 0 0 0 0.0705882 0 0 0 0 0.0941176 0 0 0 0 0.14902 0 0 0 0.03 0"/>
<feBlend mode="normal" in2="effect1_dropShadow_56_2" result="effect2_dropShadow_56_2"/>
<feBlend mode="normal" in="SourceGraphic" in2="effect2_dropShadow_56_2" result="shape"/>
</filter>
<filter id="filter9_dd_56_2" x="30" y="17" width="52" height="42.03" filterUnits="userSpaceOnUse" color-interpolation-filters="sRGB">
<feFlood flood-opacity="0" result="BackgroundImageFix"/>
<feColorMatrix in="SourceAlpha" type="matrix" values="0 0 0 0 0 0 0 0 0 0 0 0 0 0 0 0 0 0 127 0" result="hardAlpha"/>
<feOffset dy="3"/>
<feGaussianBlur stdDeviation="2.5"/>
<feColorMatrix type="matrix" values="0 0 0 0 0.0705882 0 0 0 0 0.0941176 0 0 0 0 0.14902 0 0 0 0.04 0"/>
<feBlend mode="normal" in2="BackgroundImageFix" result="effect1_dropShadow_56_2"/>
<feColorMatrix in="SourceAlpha" type="matrix" values="0 0 0 0 0 0 0 0 0 0 0 0 0 0 0 0 0 0 127 0" result="hardAlpha"/>
<feOffset dy="2"/>
<feGaussianBlur stdDeviation="1.5"/>
<feColorMatrix type="matrix" values="0 0 0 0 0.0705882 0 0 0 0 0.0941176 0 0 0 0 0.14902 0 0 0 0.08 0"/>
<feBlend mode="normal" in2="effect1_dropShadow_56_2" result="effect2_dropShadow_56_2"/>
<feBlend mode="normal" in="SourceGraphic" in2="effect2_dropShadow_56_2" result="shape"/>
</filter>
<filter id="filter10_dd_56_2" x="41" y="54" width="30" height="30" filterUnits="userSpaceOnUse" color-interpolation-filters="sRGB">
<feFlood flood-opacity="0" result="BackgroundImageFix"/>
<feColorMatrix in="SourceAlpha" type="matrix" values="0 0 0 0 0 0 0 0 0 0 0 0 0 0 0 0 0 0 127 0" result="hardAlpha"/>
<feOffset dy="2"/>
<feGaussianBlur stdDeviation="2"/>
<feColorMatrix type="matrix" values="0 0 0 0 0 0 0 0 0 0 0 0 0 0 0 0 0 0 0.06 0"/>
<feBlend mode="normal" in2="BackgroundImageFix" result="effect1_dropShadow_56_2"/>
<feColorMatrix in="SourceAlpha" type="matrix" values="0 0 0 0 0 0 0 0 0 0 0 0 0 0 0 0 0 0 127 0" result="hardAlpha"/>
<feOffset dy="3"/>
<feGaussianBlur stdDeviation="3"/>
<feColorMatrix type="matrix" values="0 0 0 0 0 0 0 0 0 0 0 0 0 0 0 0 0 0 0.1 0"/>
<feBlend mode="normal" in2="effect1_dropShadow_56_2" result="effect2_dropShadow_56_2"/>
<feBlend mode="normal" in="SourceGraphic" in2="effect2_dropShadow_56_2" result="shape"/>
</filter>
<filter id="filter11_dd_56_2" x="48" y="61" width="16" height="16" filterUnits="userSpaceOnUse" color-interpolation-filters="sRGB">
<feFlood flood-opacity="0" result="BackgroundImageFix"/>
<feColorMatrix in="SourceAlpha" type="matrix" values="0 0 0 0 0 0 0 0 0 0 0 0 0 0 0 0 0 0 127 0" result="hardAlpha"/>
<feOffset dy="2"/>
<feGaussianBlur stdDeviation="2"/>
<feColorMatrix type="matrix" values="0 0 0 0 0 0 0 0 0 0 0 0 0 0 0 0 0 0 0.06 0"/>
<feBlend mode="normal" in2="BackgroundImageFix" result="effect1_dropShadow_56_2"/>
<feColorMatrix in="SourceAlpha" type="matrix" values="0 0 0 0 0 0 0 0 0 0 0 0 0 0 0 0 0 0 127 0" result="hardAlpha"/>
<feOffset dy="3"/>
<feGaussianBlur stdDeviation="3"/>
<feColorMatrix type="matrix" values="0 0 0 0 0 0 0 0 0 0 0 0 0 0 0 0 0 0 0.1 0"/>
<feBlend mode="normal" in2="effect1_dropShadow_56_2" result="effect2_dropShadow_56_2"/>
<feBlend mode="normal" in="SourceGraphic" in2="effect2_dropShadow_56_2" result="shape"/>
</filter>
<radialGradient id="paint0_radial_56_2" cx="0" cy="0" r="1" gradientUnits="userSpaceOnUse" gradientTransform="translate(56 48) rotate(90) scale(69 72.9204)">
<stop offset="0.231884" stop-color="#C4C4C4"/>
<stop offset="0.724638" stop-color="#C4C4C4" stop-opacity="0"/>
</radialGradient>
</defs>
</svg>
