<svg width="112" height="96" viewBox="0 0 112 96" fill="none" xmlns="http://www.w3.org/2000/svg">
<mask id="mask0_56_36" style="mask-type:alpha" maskUnits="userSpaceOnUse" x="4" y="4" width="104" height="88">
<path d="M108 4H4V92H108V4Z" fill="url(#paint0_radial_56_36)"/>
</mask>
<g mask="url(#mask0_56_36)">
<g opacity="0.05" filter="url(#filter0_f_56_36)">
<path d="M56 54C60.4183 54 64 50.4183 64 46C64 41.5817 60.4183 38 56 38C51.5817 38 48 41.5817 48 46C48 50.4183 51.5817 54 56 54Z" stroke="#111827" stroke-width="2"/>
</g>
<g opacity="0.05" filter="url(#filter1_f_56_36)">
<path d="M56 62C64.8366 62 72 54.8366 72 46C72 37.1634 64.8366 30 56 30C47.1634 30 40 37.1634 40 46C40 54.8366 47.1634 62 56 62Z" stroke="#111827" stroke-width="2"/>
</g>
<g opacity="0.05" filter="url(#filter2_f_56_36)">
<path d="M66 67.8246C68.5254 66.6678 70.8913 65.0499 72.9706 62.9706C82.3431 53.598 82.3431 38.402 72.9706 29.0294C63.598 19.6568 48.402 19.6568 39.0294 29.0294C29.6569 38.402 29.6569 53.598 39.0294 62.9706C41.1087 65.0499 43.4746 66.6678 46 67.8246" stroke="#111827" stroke-width="2"/>
</g>
<g opacity="0.05" filter="url(#filter3_f_56_36)">
<path d="M46 76.4065C33.2243 72.2073 24 60.1809 24 46C24 28.3269 38.3269 14 56 14C73.6731 14 88 28.3269 88 46C88 60.1809 78.7757 72.2073 66 76.4065" stroke="#111827" stroke-width="2"/>
</g>
<g opacity="0.05" filter="url(#filter4_f_56_36)">
<path d="M66 84.7398C83.2523 80.2994 96 64.6384 96 46C96 23.9086 78.0914 6 56 6C33.9086 6 16 23.9086 16 46C16 64.6384 28.7477 80.2994 46 84.7398" stroke="#111827" stroke-width="2"/>
</g>
<g opacity="0.05" filter="url(#filter5_f_56_36)">
<path d="M46 92.9568C24.2901 88.3562 8 69.0805 8 46C8 19.4903 29.4903 -2 56 -2C82.5097 -2 104 19.4903 104 46C104 69.0805 87.7099 88.3562 66 92.9568" stroke="#111827" stroke-width="2"/>
</g>
<g opacity="0.05" filter="url(#filter6_f_56_36)">
<path d="M56 102C86.9279 102 112 76.9279 112 46C112 15.0721 86.9279 -10 56 -10C25.0721 -10 0 15.0721 0 46C0 76.9279 25.0721 102 56 102Z" stroke="#111827" stroke-width="2"/>
</g>
<g filter="url(#filter7_dd_56_36)">
<path d="M116 4V92H92V4H116Z" fill="white"/>
<path d="M116 3.5H116.5V4V92V92.5H116H92H91.5V92V4V3.5H92H116Z" stroke="#121826" stroke-opacity="0.08"/>
</g>
<g filter="url(#filter8_dd_56_36)">
<path d="M-4 4V92H20V4H-4Z" fill="white"/>
<path d="M-4 3.5H-4.5V4V92V92.5H-4H20H20.5V92V4V3.5H20H-4Z" stroke="#121826" stroke-opacity="0.08"/>
</g>
<g opacity="0.3" filter="url(#filter9_f_56_36)">
<path d="M52 61.5V97" stroke="#377DFF" stroke-width="2" stroke-linecap="round"/>
</g>
<g opacity="0.3" filter="url(#filter10_f_56_36)">
<path d="M60 61.5V97" stroke="#377DFF" stroke-width="2" stroke-linecap="round"/>
</g>
<g filter="url(#filter11_dd_56_36)">
<path d="M56 62C64.8366 62 72 54.8366 72 46C72 37.1634 64.8366 30 56 30C47.1634 30 40 37.1634 40 46C40 54.8366 47.1634 62 56 62Z" fill="white"/>
<path d="M56 62.5C65.1127 62.5 72.5 55.1127 72.5 46C72.5 36.8873 65.1127 29.5 56 29.5C46.8873 29.5 39.5 36.8873 39.5 46C39.5 55.1127 46.8873 62.5 56 62.5Z" stroke="#121826" stroke-opacity="0.08"/>
</g>
<path d="M56 59.5C63.4558 59.5 69.5 53.4558 69.5 46C69.5 38.5442 63.4558 32.5 56 32.5C48.5442 32.5 42.5 38.5442 42.5 46C42.5 53.4558 48.5442 59.5 56 59.5Z" stroke="#E5E7EB"/>
<path d="M54.6258 39.8937L49.4974 51.6157C48.9644 52.834 50.1629 54.092 51.4056 53.6186L55.822 51.9362C55.9366 51.8925 56.0634 51.8925 56.178 51.9362L60.5944 53.6186C61.8371 54.092 63.0356 52.834 62.5026 51.6157L57.3742 39.8937C56.85 38.6953 55.15 38.6953 54.6258 39.8937Z" fill="#377DFF" stroke="#377DFF"/>
</g>
<defs>
<filter id="filter0_f_56_36" x="46.5" y="36.5" width="19" height="19" filterUnits="userSpaceOnUse" color-interpolation-filters="sRGB">
<feFlood flood-opacity="0" result="BackgroundImageFix"/>
<feBlend mode="normal" in="SourceGraphic" in2="BackgroundImageFix" result="shape"/>
<feGaussianBlur stdDeviation="0.25" result="effect1_foregroundBlur_56_36"/>
</filter>
<filter id="filter1_f_56_36" x="38.5" y="28.5" width="35" height="35" filterUnits="userSpaceOnUse" color-interpolation-filters="sRGB">
<feFlood flood-opacity="0" result="BackgroundImageFix"/>
<feBlend mode="normal" in="SourceGraphic" in2="BackgroundImageFix" result="shape"/>
<feGaussianBlur stdDeviation="0.25" result="effect1_foregroundBlur_56_36"/>
</filter>
<filter id="filter2_f_56_36" x="30.5" y="20.5" width="51" height="48.7338" filterUnits="userSpaceOnUse" color-interpolation-filters="sRGB">
<feFlood flood-opacity="0" result="BackgroundImageFix"/>
<feBlend mode="normal" in="SourceGraphic" in2="BackgroundImageFix" result="shape"/>
<feGaussianBlur stdDeviation="0.25" result="effect1_foregroundBlur_56_36"/>
</filter>
<filter id="filter3_f_56_36" x="22.5" y="12.5" width="67" height="65.3564" filterUnits="userSpaceOnUse" color-interpolation-filters="sRGB">
<feFlood flood-opacity="0" result="BackgroundImageFix"/>
<feBlend mode="normal" in="SourceGraphic" in2="BackgroundImageFix" result="shape"/>
<feGaussianBlur stdDeviation="0.25" result="effect1_foregroundBlur_56_36"/>
</filter>
<filter id="filter4_f_56_36" x="14.5" y="4.5" width="83" height="81.7083" filterUnits="userSpaceOnUse" color-interpolation-filters="sRGB">
<feFlood flood-opacity="0" result="BackgroundImageFix"/>
<feBlend mode="normal" in="SourceGraphic" in2="BackgroundImageFix" result="shape"/>
<feGaussianBlur stdDeviation="0.25" result="effect1_foregroundBlur_56_36"/>
</filter>
<filter id="filter5_f_56_36" x="6.5" y="-3.5" width="99" height="97.9351" filterUnits="userSpaceOnUse" color-interpolation-filters="sRGB">
<feFlood flood-opacity="0" result="BackgroundImageFix"/>
<feBlend mode="normal" in="SourceGraphic" in2="BackgroundImageFix" result="shape"/>
<feGaussianBlur stdDeviation="0.25" result="effect1_foregroundBlur_56_36"/>
</filter>
<filter id="filter6_f_56_36" x="-1.5" y="-11.5" width="115" height="115" filterUnits="userSpaceOnUse" color-interpolation-filters="sRGB">
<feFlood flood-opacity="0" result="BackgroundImageFix"/>
<feBlend mode="normal" in="SourceGraphic" in2="BackgroundImageFix" result="shape"/>
<feGaussianBlur stdDeviation="0.25" result="effect1_foregroundBlur_56_36"/>
</filter>
<filter id="filter7_dd_56_36" x="86" y="1" width="36" height="100" filterUnits="userSpaceOnUse" color-interpolation-filters="sRGB">
<feFlood flood-opacity="0" result="BackgroundImageFix"/>
<feColorMatrix in="SourceAlpha" type="matrix" values="0 0 0 0 0 0 0 0 0 0 0 0 0 0 0 0 0 0 127 0" result="hardAlpha"/>
<feOffset dy="3"/>
<feGaussianBlur stdDeviation="2.5"/>
<feColorMatrix type="matrix" values="0 0 0 0 0.0705882 0 0 0 0 0.0941176 0 0 0 0 0.14902 0 0 0 0.04 0"/>
<feBlend mode="normal" in2="BackgroundImageFix" result="effect1_dropShadow_56_36"/>
<feColorMatrix in="SourceAlpha" type="matrix" values="0 0 0 0 0 0 0 0 0 0 0 0 0 0 0 0 0 0 127 0" result="hardAlpha"/>
<feOffset dy="1"/>
<feGaussianBlur stdDeviation="1"/>
<feColorMatrix type="matrix" values="0 0 0 0 0.0705882 0 0 0 0 0.0941176 0 0 0 0 0.14902 0 0 0 0.03 0"/>
<feBlend mode="normal" in2="effect1_dropShadow_56_36" result="effect2_dropShadow_56_36"/>
<feBlend mode="normal" in="SourceGraphic" in2="effect2_dropShadow_56_36" result="shape"/>
</filter>
<filter id="filter8_dd_56_36" x="-10" y="1" width="36" height="100" filterUnits="userSpaceOnUse" color-interpolation-filters="sRGB">
<feFlood flood-opacity="0" result="BackgroundImageFix"/>
<feColorMatrix in="SourceAlpha" type="matrix" values="0 0 0 0 0 0 0 0 0 0 0 0 0 0 0 0 0 0 127 0" result="hardAlpha"/>
<feOffset dy="3"/>
<feGaussianBlur stdDeviation="2.5"/>
<feColorMatrix type="matrix" values="0 0 0 0 0.0705882 0 0 0 0 0.0941176 0 0 0 0 0.14902 0 0 0 0.04 0"/>
<feBlend mode="normal" in2="BackgroundImageFix" result="effect1_dropShadow_56_36"/>
<feColorMatrix in="SourceAlpha" type="matrix" values="0 0 0 0 0 0 0 0 0 0 0 0 0 0 0 0 0 0 127 0" result="hardAlpha"/>
<feOffset dy="1"/>
<feGaussianBlur stdDeviation="1"/>
<feColorMatrix type="matrix" values="0 0 0 0 0.0705882 0 0 0 0 0.0941176 0 0 0 0 0.14902 0 0 0 0.03 0"/>
<feBlend mode="normal" in2="effect1_dropShadow_56_36" result="effect2_dropShadow_56_36"/>
<feBlend mode="normal" in="SourceGraphic" in2="effect2_dropShadow_56_36" result="shape"/>
</filter>
<filter id="filter9_f_56_36" x="50.5" y="60" width="3" height="38.5" filterUnits="userSpaceOnUse" color-interpolation-filters="sRGB">
<feFlood flood-opacity="0" result="BackgroundImageFix"/>
<feBlend mode="normal" in="SourceGraphic" in2="BackgroundImageFix" result="shape"/>
<feGaussianBlur stdDeviation="0.25" result="effect1_foregroundBlur_56_36"/>
</filter>
<filter id="filter10_f_56_36" x="58.5" y="60" width="3" height="38.5" filterUnits="userSpaceOnUse" color-interpolation-filters="sRGB">
<feFlood flood-opacity="0" result="BackgroundImageFix"/>
<feBlend mode="normal" in="SourceGraphic" in2="BackgroundImageFix" result="shape"/>
<feGaussianBlur stdDeviation="0.25" result="effect1_foregroundBlur_56_36"/>
</filter>
<filter id="filter11_dd_56_36" x="34" y="27" width="44" height="44" filterUnits="userSpaceOnUse" color-interpolation-filters="sRGB">
<feFlood flood-opacity="0" result="BackgroundImageFix"/>
<feColorMatrix in="SourceAlpha" type="matrix" values="0 0 0 0 0 0 0 0 0 0 0 0 0 0 0 0 0 0 127 0" result="hardAlpha"/>
<feOffset dy="3"/>
<feGaussianBlur stdDeviation="2.5"/>
<feColorMatrix type="matrix" values="0 0 0 0 0.0705882 0 0 0 0 0.0941176 0 0 0 0 0.14902 0 0 0 0.04 0"/>
<feBlend mode="normal" in2="BackgroundImageFix" result="effect1_dropShadow_56_36"/>
<feColorMatrix in="SourceAlpha" type="matrix" values="0 0 0 0 0 0 0 0 0 0 0 0 0 0 0 0 0 0 127 0" result="hardAlpha"/>
<feOffset dy="2"/>
<feGaussianBlur stdDeviation="1.5"/>
<feColorMatrix type="matrix" values="0 0 0 0 0.0705882 0 0 0 0 0.0941176 0 0 0 0 0.14902 0 0 0 0.08 0"/>
<feBlend mode="normal" in2="effect1_dropShadow_56_36" result="effect2_dropShadow_56_36"/>
<feBlend mode="normal" in="SourceGraphic" in2="effect2_dropShadow_56_36" result="shape"/>
</filter>
<radialGradient id="paint0_radial_56_36" cx="0" cy="0" r="1" gradientUnits="userSpaceOnUse" gradientTransform="translate(56 48) rotate(90) scale(69 72.9204)">
<stop offset="0.231884" stop-color="#C4C4C4"/>
<stop offset="0.724638" stop-color="#C4C4C4" stop-opacity="0"/>
</radialGradient>
</defs>
</svg>
